<?xml version="1.0" encoding="UTF-8"?>
<svg width="3000px" height="1166px" viewBox="0 0 3000 1166" version="1.1" xmlns="http://www.w3.org/2000/svg" xmlns:xlink="http://www.w3.org/1999/xlink">
    <title>rxline-banner</title>
    <defs>
        <rect id="path-1" x="0.87393022" y="0.759825462" width="32" height="192"></rect>
        <rect id="path-3" x="0.0949932624" y="-6.82121026e-13" width="32" height="156"></rect>
        <rect id="path-5" x="0.0188089456" y="-1.13686838e-13" width="32" height="128"></rect>
        <circle id="path-7" cx="32" cy="32" r="32"></circle>
        <rect id="path-9" x="0.678377541" y="1.13686838e-13" width="32" height="128"></rect>
        <rect id="path-11" x="-2.27373675e-13" y="0.540490804" width="96" height="32"></rect>
        <circle id="path-13" cx="32" cy="32.5404908" r="32"></circle>
        <circle id="path-15" cx="32" cy="32" r="32"></circle>
        <circle id="path-17" cx="32" cy="32" r="32"></circle>
        <rect id="path-19" x="0.14290293" y="0.380706599" width="32" height="320"></rect>
        <circle id="path-21" cx="32.5925761" cy="32" r="32"></circle>
        <rect id="path-23" x="0" y="0" width="640" height="192" rx="96"></rect>
    </defs>
    <g id="rxline-banner" stroke="none" stroke-width="1" fill="none" fill-rule="evenodd">
        <g id="Group">
            <g id="boxes" transform="translate(300.127624, 511.804811)">
                <rect id="Rectangle" stroke="#50E3C2" stroke-width="8" fill="#4A90E2" x="4" y="4" width="120" height="120"></rect>
                <rect id="Rectangle-Copy" stroke="#50E3C2" stroke-width="8" fill="#4A90E2" x="164" y="4" width="120" height="120"></rect>
                <rect id="Rectangle-Copy-2" stroke="#50E3C2" stroke-width="8" fill="#4A90E2" x="324" y="4" width="120" height="120"></rect>
                <rect id="Rectangle-Copy-3" fill="#50E3C2" x="0" y="0" width="128" height="48"></rect>
                <rect id="Rectangle-Copy-4" fill="#50E3C2" x="160" y="0" width="128" height="48"></rect>
                <rect id="Rectangle-Copy-5" fill="#50E3C2" x="320" y="0" width="128" height="48"></rect>
            </g>
            <g id="arm" transform="translate(388.000000, 388.000000) rotate(-30.000000) translate(-388.000000, -388.000000) translate(104.000000, 105.000000)">
                <g id="forearm" transform="translate(291.575916, 282.866623) rotate(60.000000) translate(-291.575916, -282.866623) translate(77.575916, 88.366623)">
                    <g transform="translate(15.126070, 195.240175)">
                        <mask id="mask-2" fill="white">
                            <use xlink:href="#path-1"></use>
                        </mask>
                        <use id="Mask" fill="#293462" xlink:href="#path-1"></use>
                        <polygon id="Rectangle" fill="#091238" mask="url(#mask-2)" points="-11.5 4.63764622e-11 47.8789925 10.4621686 -13.9841102 226.312132 -26 20"></polygon>
                    </g>
                    <g id="hand" transform="translate(221.260217, 191.808312) rotate(60.000000) translate(-221.260217, -191.808312) translate(96.260217, 25.808312)">
                        <g id="palm" transform="translate(17.905007, 176.000000)">
                            <mask id="mask-4" fill="white">
                                <use xlink:href="#path-3"></use>
                            </mask>
                            <use id="Mask" fill="#293462" xlink:href="#path-3"></use>
                            <polygon id="Rectangle" fill="#091238" mask="url(#mask-4)" points="8.5 2.5 51 37 48 63 -6 22.5"></polygon>
                        </g>
                        <g id="finger2" transform="translate(134.044270, 178.530423) rotate(30.000000) translate(-134.044270, -178.530423) translate(46.544270, 98.530423)">
                            <rect id="finger-base" fill="#D27E1B" x="6.82121026e-13" y="112" width="96" height="32"></rect>
                            <g id="finger-tip" transform="translate(121.604738, 68.451435) rotate(30.000000) translate(-121.604738, -68.451435) translate(97.104738, 4.451435)">
                                <g id="Path-6" transform="translate(15.981191, 0.000000)">
                                    <mask id="mask-6" fill="white">
                                        <use xlink:href="#path-5"></use>
                                    </mask>
                                    <use id="Mask" fill="#EC9B3B" xlink:href="#path-5"></use>
                                    <polygon fill="#D27E1B" mask="url(#mask-6)" points="71.0764336 78.6203385 41.8025589 72.1879702 7.8186356e-14 100.592126 20.5788383 130.948533"></polygon>
                                </g>
                                <rect id="Rectangle-Copy-9" fill="#3C4245" x="0" y="0" width="16" height="32"></rect>
                                <rect id="Rectangle-Copy-10" fill="#3C4245" x="0" y="40" width="16" height="32"></rect>
                            </g>
                            <g id="finger-joint" transform="translate(64.000000, 96.000000)">
                                <g id="Path-3">
                                    <mask id="mask-8" fill="white">
                                        <use xlink:href="#path-7"></use>
                                    </mask>
                                    <use id="Mask" fill="#EC9B3B" xlink:href="#path-7"></use>
                                    <polygon fill="#D27E1B" mask="url(#mask-8)" points="79.8090466 13.8086561 89.6487926 50.851596 32.3295732 47.5717958 32.0029669 16.0060972"></polygon>
                                </g>
                                <circle id="Oval-Copy-3" fill="#F7BE16" cx="32" cy="32" r="16"></circle>
                            </g>
                        </g>
                        <g id="finger-1" transform="translate(80.864516, 87.864516) rotate(90.000000) translate(-80.864516, -87.864516) translate(-6.635484, 7.364516)">
                            <g id="finger-tip" transform="translate(53.392048, 68.439440) rotate(-30.000000) translate(-53.392048, -68.439440) translate(28.892048, 4.439440)">
                                <g id="Path-4" transform="translate(0.321622, -0.000000)">
                                    <mask id="mask-10" fill="white">
                                        <use xlink:href="#path-9"></use>
                                    </mask>
                                    <use id="Mask" fill="#EC9B3B" xlink:href="#path-9"></use>
                                    <polygon fill="#D27E1B" mask="url(#mask-10)" points="48.9282032 24.6189168 89.7115242 57.9801328 20.591978 134.698699 -9 108.953508"></polygon>
                                </g>
                                <rect id="Rectangle" fill="#3C4245" x="33" y="-2.16004992e-12" width="16" height="32"></rect>
                                <rect id="Rectangle-Copy-8" fill="#3C4245" x="33" y="40" width="16" height="32"></rect>
                            </g>
                            <g id="Path-5" transform="translate(79.000000, 111.459509)">
                                <mask id="mask-12" fill="white">
                                    <use xlink:href="#path-11"></use>
                                </mask>
                                <use id="Mask" fill="#EC9B3B" xlink:href="#path-11"></use>
                                <polygon fill="#D27E1B" mask="url(#mask-12)" points="4.63548407 -47 48.1354841 -24 28.1354841 31.5 0.135484067 19.5"></polygon>
                            </g>
                            <g id="finger-joint" transform="translate(47.000000, 95.000000)">
                                <g id="Path-2" transform="translate(-0.000000, 0.459509)">
                                    <mask id="mask-14" fill="white">
                                        <use xlink:href="#path-13"></use>
                                    </mask>
                                    <use id="Mask" fill="#EC9B3B" xlink:href="#path-13"></use>
                                    <polygon fill="#D27E1B" mask="url(#mask-14)" points="23.6354841 -31 61.6354841 -18 48.1354841 35.5 16.1354841 29.5"></polygon>
                                </g>
                                <circle id="Oval-Copy-3" fill="#F7BE16" cx="32" cy="33" r="16"></circle>
                            </g>
                        </g>
                        <g id="palm-joint" transform="translate(2.000000, 144.000000)">
                            <g id="Path-7">
                                <mask id="mask-16" fill="white">
                                    <use xlink:href="#path-15"></use>
                                </mask>
                                <use id="Mask" fill="#293462" xlink:href="#path-15"></use>
                                <polygon fill="#091238" mask="url(#mask-16)" points="37.9050067 18 75.9050067 38 55.9050067 69 20.9050067 43.5"></polygon>
                            </g>
                            <circle id="Oval-Copy-3" fill="#00818A" cx="32" cy="32" r="16"></circle>
                        </g>
                    </g>
                    <g id="wrist" transform="translate(0.000000, 164.000000)">
                        <g id="Rectangle" transform="translate(-0.000000, 0.000000)">
                            <mask id="mask-18" fill="white">
                                <use xlink:href="#path-17"></use>
                            </mask>
                            <use id="Mask" fill="#293462" xlink:href="#path-17"></use>
                            <polygon fill="#091238" mask="url(#mask-18)" points="16.8592366 26.7754286 46.6127574 37.3100383 28.873665 92.585029 1.57943641 63.3100383"></polygon>
                        </g>
                        <circle id="Oval-Copy-3" fill="#00818A" cx="32" cy="32" r="16"></circle>
                    </g>
                </g>
                <g transform="translate(16.857097, 221.619293)">
                    <mask id="mask-20" fill="white">
                        <use xlink:href="#path-19"></use>
                    </mask>
                    <use id="Mask" fill="#293462" xlink:href="#path-19"></use>
                    <polygon id="Rectangle" fill="#091238" mask="url(#mask-20)" points="-35.3714792 10.1075225 -12.5048095 -1 24.3813972 30.1112159 -56 59.3358799"></polygon>
                </g>
                <g id="elbow" transform="translate(0.000000, 190.000000)">
                    <g id="Rectangle" transform="translate(0.407424, 0.000000)">
                        <mask id="mask-22" fill="white">
                            <use xlink:href="#path-21"></use>
                        </mask>
                        <use id="Mask" fill="#293462" xlink:href="#path-21"></use>
                        <polygon fill="#091238" mask="url(#mask-22)" points="-37 33.5378777 28.5022321 17.0846837 36.054791 48.003268 -30.5144284 67.3045382"></polygon>
                    </g>
                    <circle id="Oval-Copy-3" fill="#00818A" cx="33" cy="32" r="16"></circle>
                </g>
            </g>
            <g id="rail" transform="translate(204.127624, 639.804811)">
                <g id="Shape">
                    <mask id="mask-24" fill="white">
                        <use xlink:href="#path-23"></use>
                    </mask>
                    <use id="Mask-Copy" fill="#5F6769" xlink:href="#path-23"></use>
                    <path d="M384,96 L401.5,334.5 L228.5,327.5 L255,96 L384,96 Z M37.5,74.5 L156,119 L110,301.5 L-64,301.5 L37.5,74.5 Z M604,73.5 L672.5,241.5 L521,292.5 L482,111 L604,73.5 Z" fill="#394649" mask="url(#mask-24)"></path>
                </g>
                <path d="M545.255,191.99 L544,192 L497.249,192 L497.249,208 L544.005947,208 C544.491705,208 544.976182,207.996851 545.460329,207.990647 L545.255,191.99 Z M485.24936,192 L437.249,192 L437.249,208 L485.24936,208 L485.24936,192 Z M425.24936,192 L377.249,192 L377.249,208 L425.24936,208 L425.24936,192 Z M365.24936,192 L317.249,192 L317.249,208 L365.24936,208 L365.24936,192 Z M305.24936,192 L257.249,192 L257.249,208 L305.24936,208 L305.24936,192 Z M245.24936,192 L197.249,192 L197.249,208 L245.24936,208 L245.24936,192 Z M185.24936,192 L137.249,192 L137.249,208 L185.24936,208 L185.24936,192 Z M96,192 C89.6136442,192 83.3729396,191.376393 77.3354575,190.186751 L74.2423294,205.884922 C81.3627053,207.287935 88.6402095,208 96,208 L125.24936,208 L125.24936,192 L96,192 Z M601.290373,173.03863 C588.665836,182.442288 573.651171,188.815971 557.323116,191.082941 L559.523635,206.930897 C578.251082,204.330763 595.840544,197.048883 610.848036,185.870274 L601.290373,173.03863 Z M65.7372854,187.132684 C50.2956369,182.00752 36.5941551,173.067382 25.7500655,161.429496 L14.0445302,172.337312 C26.8236112,186.051708 42.8558272,196.396589 60.6977574,202.318308 L65.7372854,187.132684 Z M635.55848,124.948005 C630.653924,140.475 621.908835,154.296122 610.437806,165.296778 L621.51206,176.844976 C635.039709,163.872102 645.15192,147.697147 650.815515,129.767019 L635.55848,124.948005 Z M18.1453205,152.178285 C8.93166411,139.431836 2.77138916,124.332895 0.736995415,107.953961 L-15.1410599,109.925601 C-12.8091769,128.70036 -5.78182338,146.388764 5.17799463,161.551036 L18.1453205,152.178285 Z M635.161752,65.8250068 C638.300947,75.3138955 640,85.4585302 640,96 C640,101.907367 639.466429,107.690111 638.444851,113.302668 L654.186201,116.167959 C655.390834,109.549732 655.999994,102.807128 655.999994,95.9662074 C655.995836,83.8871313 654.075064,72.0532582 650.352122,60.7998035 L635.161752,65.8250068 Z M11.8044115,49.8421507 L-2.21873485,42.1381668 C-11.1914159,58.4703448 -15.9763821,76.8360432 -15.9999127,95.8588745 L7.60900363e-05,95.8778196 C0.0208588365,79.1928227 4.29815555,63.5050815 11.8044115,49.8421507 Z M600.214236,18.1713194 C613.180521,27.5529792 623.709733,40.0954016 630.671741,54.6684558 L645.108877,47.7714193 C637.022532,30.8448607 624.779865,16.1967668 609.593647,5.20881026 L600.214236,18.1713194 Z M54.7810349,9.27456635 L47.9028779,-5.17157348 C30.9660777,2.89252491 16.302705,15.1158034 5.29519737,30.2871239 L18.2457948,39.6829755 C27.6435048,26.7304867 40.1985497,16.2177188 54.7810349,9.27456635 Z M544,0 C560.686646,0 576.378927,4.25738227 590.049881,11.7451854 L597.735999,-2.28776134 C581.393771,-11.2386719 563.023315,-16 544,-16 L544,0 Z M113.501272,1.96820338e-12 L113.501272,-16 L95.9586606,-16 C83.9290507,-15.9949244 72.1437985,-14.0893031 60.9325284,-10.3959386 L65.9387014,4.80071341 C75.3949139,1.6855118 85.5006208,1.96820338e-12 96,1.96820338e-12 L113.501272,1.96820338e-12 Z M173.50128,-16 L125.501,-16 L125.501,0 L173.50128,0 L173.50128,-16 Z M233.50128,-16 L185.501,-16 L185.501,0 L233.50128,0 L233.50128,-16 Z M293.50128,-16 L245.501,-16 L245.501,0 L293.50128,0 L293.50128,-16 Z M353.50128,-16 L305.501,-16 L305.501,0 L353.50128,0 L353.50128,-16 Z M413.50128,-16 L365.501,-16 L365.501,0 L413.50128,0 L413.50128,-16 Z M473.50128,-16 L425.501,-16 L425.501,0 L473.50128,0 L473.50128,-16 Z M533.50128,-16 L485.501,-16 L485.501,0 L533.50128,0 L533.50128,-16 Z" id="Mask" fill="#3C4245" fill-rule="nonzero"></path>
                <circle id="Oval" fill="#719192" cx="320" cy="96" r="64"></circle>
                <circle id="Oval-Copy-2" fill="#719192" cx="96" cy="96" r="64"></circle>
                <circle id="Oval-Copy" fill="#719192" cx="544" cy="96" r="64"></circle>
            </g>
        </g>
        <path d="M1182.63595,658.417513 L1272.40002,802.040034 C1281.76675,817.026803 1277.21081,836.769215 1262.22404,846.135946 C1257.13823,849.314578 1251.26151,851 1245.26408,851 L1065.73592,851 C1048.06281,851 1033.73592,836.673112 1033.73592,819 C1033.73592,813.002569 1035.42135,807.125845 1038.59998,802.040034 L1128.36405,658.417513 C1137.73078,643.430744 1157.4732,638.874803 1172.45997,648.241534 C1176.58058,650.816916 1180.06056,654.296901 1182.63595,658.417513 Z" id="Triangle" stroke="#478CDE" stroke-width="16" fill-opacity="0.5" fill="#4A90E2" transform="translate(1155.500000, 733.000000) rotate(3.000000) translate(-1155.500000, -733.000000) "></path>
        <path d="M2595.62733,441.354743 L2759.35683,703.02626 C2768.73116,718.008272 2764.18525,737.752994 2749.20323,747.127332 C2744.11436,750.311475 2738.23245,752 2732.22949,752 L2404.77051,752 C2387.09739,752 2372.77051,737.673112 2372.77051,720 C2372.77051,713.997047 2374.45903,708.115138 2377.64317,703.02626 L2541.37267,441.354743 C2550.74701,426.372731 2570.49173,421.826813 2585.47374,431.201151 C2589.58374,433.772806 2593.05568,437.244739 2595.62733,441.354743 Z" id="Triangle-Copy-2" stroke="#478CDE" stroke-width="16" fill-opacity="0.5" fill="#4A90E2" transform="translate(2568.500000, 575.000000) rotate(-66.000000) translate(-2568.500000, -575.000000) "></path>
        <path d="M1839.64456,281.480423 L1892.4432,366.053821 C1901.80232,381.045347 1897.23635,400.785442 1882.24483,410.144558 C1877.16209,413.31768 1871.29055,415 1865.29865,415 L1759.70135,415 C1742.02824,415 1727.70135,400.673112 1727.70135,383 C1727.70135,377.008095 1729.38367,371.136559 1732.5568,366.053821 L1785.35544,281.480423 C1794.71456,266.488898 1814.45465,261.922928 1829.44618,271.282044 C1833.57741,273.861147 1837.06546,277.349191 1839.64456,281.480423 Z" id="Triangle-Copy" stroke="#478CDE" stroke-width="16" fill-opacity="0.5" fill="#4A90E2" transform="translate(1812.500000, 326.500000) rotate(-28.000000) translate(-1812.500000, -326.500000) "></path>
        <rect id="Rectangle" stroke="#478CDE" stroke-width="16" fill-opacity="0.5" fill="#4A90E2" transform="translate(1532.500000, 643.500000) rotate(-56.000000) translate(-1532.500000, -643.500000) " x="1344" y="555" width="377" height="177" rx="32"></rect>
        <rect id="Rectangle-Copy-6" stroke="#478CDE" stroke-width="16" fill-opacity="0.5" fill="#4A90E2" transform="translate(2092.500000, 656.500000) rotate(-94.000000) translate(-2092.500000, -656.500000) " x="1904" y="445" width="377" height="423" rx="32"></rect>
        <path d="M2469.19445,593.75 C2507.59177,593.75 2537.82239,606.187036 2560.10609,630.609969 C2581.96768,654.587193 2593.20784,687.731423 2593.19443,730.3261 L2593.19443,730.3261 L2592.79493,751.5 L2537.744,751.5 L2598.25104,785.257643 L2593.38926,793.493027 C2585.9525,806.012566 2578.09611,816.768303 2569.84397,825.7783 C2561.14986,835.270847 2551.82559,843.065522 2541.89062,849.186178 C2531.85232,855.370487 2521.00855,859.899947 2509.3566,862.768119 C2497.93561,865.57944 2485.5495,867 2472.19445,867 C2433.38735,867 2402.33722,854.373627 2378.87373,829.488103 C2355.56783,804.593236 2343.69445,771.67137 2343.69445,730.5 C2343.69445,689.742879 2355.18289,656.857805 2377.7336,631.664423 C2400.77624,606.477583 2431.19166,593.75 2469.19445,593.75 Z M2536.67218,751.5 L2419.44476,751.5 C2421.75683,765.40935 2427.09412,776.838154 2435.68223,785.674906 C2445.69579,795.811803 2458.57155,800.75 2474.19445,800.75 C2486.2561,800.75 2496.31363,798.044068 2504.23998,792.278984 C2513.64667,785.287655 2524.34819,771.580314 2536.67218,751.5 L2536.67218,751.5 Z M2470.44445,660.5 C2464.54455,660.5 2459.00064,661.383049 2453.81854,663.182389 C2448.68401,664.96521 2444.01173,667.53041 2439.80406,670.882284 C2435.57195,674.253625 2431.95593,678.311561 2428.94374,683.045004 C2427.64934,685.079055 2426.48804,687.23114 2425.45703,689.5 L2516.14015,689.5 C2512.76043,681.295293 2508.1495,674.766739 2502.16137,670.018445 C2493.98449,663.534576 2483.35811,660.5 2470.44445,660.5 Z M1184.50754,458 L1186.04837,458.002903 C1238.7988,458.201252 1276.66652,468.770721 1300.16552,488.641206 C1326.9934,511.534217 1340.5,541.695411 1340.5,579.25 C1340.5,608.535714 1332.03164,633.677442 1315.25728,654.734616 C1300.87428,672.789879 1282.58194,685.316276 1260.34914,692.264391 L1260.34914,692.264391 L1382.19963,860 L1291.07719,860 L1182.5,704.397321 L1182.5,860 L1108.25,860 L1108.25,458 L1184.50754,458 Z M1195.25,528.75 L1182.5,528.75 L1182.5,635.25 L1193,635.25 C1218.30863,635.25 1237.49225,630.798026 1250.20432,621.081547 C1262.1481,611.952315 1267.75,598.121483 1267.75,580 C1267.75,563.240606 1262.35422,550.448691 1250.88282,542.00546 C1238.51997,532.906096 1219.86664,528.75 1195.25,528.75 Z M1478.39422,600.5 L1391.01432,600.5 L1484.68393,720.129472 L1369.76185,860 L1459.26909,860 L1528.61319,773.852378 L1596.30061,860 L1683.72058,860 L1573.17528,720.29407 L1669.65373,600.5 L1580.02743,600.5 L1528.74675,666.399155 L1478.39422,600.5 Z M1787.87778,458 L1713.62778,458 L1713.62778,860 L1901.37778,860 L1901.37778,789.25 L1787.87778,789.25 L1787.87778,458 Z M2007.81667,600.5 L1935.56667,600.5 L1935.56667,860 L2007.81667,860 L2007.81667,600.5 Z M2141.25556,613.537481 L2141.25556,600.5 L2068.75556,600.5 L2068.75556,860 L2141.25556,860 L2141.25556,734.5 C2141.25556,706.341117 2144.36555,686.396897 2151.50816,675.039924 C2158.01115,664.801049 2169.25249,660.25 2184.50556,660.25 C2198.12569,660.25 2208.14272,663.214587 2213.53567,670.955374 C2219.4954,679.150011 2221.93664,694.074704 2222.00428,715.203787 L2222.00556,716.006335 L2222.00556,860 L2294.50556,860 L2294.50556,702.75 C2294.50556,665.78127 2286.61551,639.453489 2271.98889,623.189361 C2254.72484,603.744882 2230.73779,593.75 2199.75556,593.75 C2178.58223,593.75 2159.06258,600.294346 2141.25556,613.537481 Z M1971.56667,463 C1959.37489,463 1948.90088,467.35208 1940.15981,476.093146 C1931.40331,484.849647 1927.06667,495.246552 1927.06667,507.25 C1927.06667,519.817568 1931.44874,530.445777 1940.15981,539.156854 C1948.88574,547.882782 1959.43685,552.25 1971.81667,552.25 C1984.21694,552.25 1994.68014,547.871927 2003.22384,539.157194 C2011.94945,530.430926 2016.31667,519.879819 2016.31667,507.5 C2016.31667,495.099724 2011.93859,484.63653 2003.22386,476.092826 C1994.49759,467.367218 1983.94649,463 1971.56667,463 Z" id="RxLine" stroke="#FFFFFF" stroke-width="16" fill="#212121" fill-rule="nonzero" opacity="0.9"></path>
        <rect id="Rectangle" fill="#9E9E9E" opacity="0.5" x="104" y="849" width="2792" height="32" rx="16"></rect>
        <rect id="Rectangle-Copy-7" fill="#9E9E9E" opacity="0.5" x="302" y="930" width="608" height="32" rx="16"></rect>
        <rect id="Rectangle-Copy-11" fill="#9E9E9E" opacity="0.5" x="1005" y="930" width="295" height="32" rx="16"></rect>
        <rect id="Rectangle-Copy-12" fill="#9E9E9E" opacity="0.5" x="1573" y="930" width="744" height="32" rx="16"></rect>
        <rect id="Rectangle-Copy-13" fill="#9E9E9E" opacity="0.5" x="2368" y="930" width="201" height="32" rx="16"></rect>
        <rect id="Rectangle-Copy-14" fill="#9E9E9E" opacity="0.5" x="2116" y="1011" width="84" height="32" rx="16"></rect>
        <rect id="Rectangle-Copy-15" fill="#9E9E9E" opacity="0.5" x="1573" y="1011" width="354" height="32" rx="16"></rect>
        <rect id="Rectangle-Copy-16" fill="#9E9E9E" opacity="0.5" x="1152" y="1027" width="112" height="32" rx="16"></rect>
        <rect id="Rectangle-Copy-17" fill="#9E9E9E" opacity="0.5" x="657" y="1027" width="401" height="32" rx="16"></rect>
    </g>
</svg>