<?xml version="1.0" encoding="UTF-8"?>
<svg width="1024px" height="1024px" viewBox="0 0 1024 1024" version="1.1" xmlns="http://www.w3.org/2000/svg" xmlns:xlink="http://www.w3.org/1999/xlink">
    <!-- Generator: Sketch 63.1 (92452) - https://sketch.com -->
    <title>rxline</title>
    <desc>Created with Sketch.</desc>
    <defs>
        <rect id="path-1" x="0.87393022" y="0.759825462" width="32" height="192"></rect>
        <rect id="path-3" x="0.0949932624" y="-6.82121026e-13" width="32" height="156"></rect>
        <rect id="path-5" x="0.0188089456" y="-1.13686838e-13" width="32" height="128"></rect>
        <circle id="path-7" cx="32" cy="32" r="32"></circle>
        <rect id="path-9" x="0.678377541" y="1.13686838e-13" width="32" height="128"></rect>
        <rect id="path-11" x="-2.27373675e-13" y="0.540490804" width="96" height="32"></rect>
        <circle id="path-13" cx="32" cy="32.5404908" r="32"></circle>
        <circle id="path-15" cx="32" cy="32" r="32"></circle>
        <circle id="path-17" cx="32" cy="32" r="32"></circle>
        <rect id="path-19" x="0.14290293" y="0.380706599" width="32" height="320"></rect>
        <circle id="path-21" cx="32.5925761" cy="32" r="32"></circle>
        <rect id="path-23" x="0" y="0" width="640" height="192" rx="96"></rect>
        <mask id="mask-24" maskContentUnits="userSpaceOnUse" maskUnits="objectBoundingBox" x="-16" y="-16" width="672" height="224">
            <rect x="-16" y="-16" width="672" height="224" fill="white"></rect>
            <use xlink:href="#path-23" fill="black"></use>
        </mask>
        <mask id="mask-26" maskContentUnits="userSpaceOnUse" maskUnits="objectBoundingBox" x="-16" y="-16" width="672" height="224">
            <rect x="-16" y="-16" width="672" height="224" fill="white"></rect>
            <use xlink:href="#path-23" fill="black"></use>
        </mask>
    </defs>
    <g id="rxline" stroke="none" stroke-width="1" fill="none" fill-rule="evenodd">
        <g id="boxes" transform="translate(288.000000, 448.000000)">
            <rect id="Rectangle" stroke="#50E3C2" stroke-width="8" fill="#4A90E2" x="4" y="4" width="120" height="120"></rect>
            <rect id="Rectangle-Copy" stroke="#50E3C2" stroke-width="8" fill="#4A90E2" x="164" y="4" width="120" height="120"></rect>
            <rect id="Rectangle-Copy-2" stroke="#50E3C2" stroke-width="8" fill="#4A90E2" x="324" y="4" width="120" height="120"></rect>
            <rect id="Rectangle-Copy-3" fill="#50E3C2" x="0" y="0" width="128" height="48"></rect>
            <rect id="Rectangle-Copy-4" fill="#50E3C2" x="160" y="0" width="128" height="48"></rect>
            <rect id="Rectangle-Copy-5" fill="#50E3C2" x="320" y="0" width="128" height="48"></rect>
        </g>
        <g id="arm" transform="translate(375.872376, 324.195189) rotate(-30.000000) translate(-375.872376, -324.195189) translate(91.872376, 41.195189)">
            <g id="forearm" transform="translate(291.575916, 282.866623) rotate(60.000000) translate(-291.575916, -282.866623) translate(77.575916, 88.366623)">
                <g transform="translate(15.126070, 195.240175)">
                    <mask id="mask-2" fill="white">
                        <use xlink:href="#path-1"></use>
                    </mask>
                    <use id="Mask" fill="#293462" xlink:href="#path-1"></use>
                    <polygon id="Rectangle" fill="#091238" mask="url(#mask-2)" points="-11.5 4.63764622e-11 47.8789925 10.4621686 -13.9841102 226.312132 -26 20"></polygon>
                </g>
                <g id="hand" transform="translate(221.260217, 191.808312) rotate(60.000000) translate(-221.260217, -191.808312) translate(96.260217, 25.808312)">
                    <g id="palm" transform="translate(17.905007, 176.000000)">
                        <mask id="mask-4" fill="white">
                            <use xlink:href="#path-3"></use>
                        </mask>
                        <use id="Mask" fill="#293462" xlink:href="#path-3"></use>
                        <polygon id="Rectangle" fill="#091238" mask="url(#mask-4)" points="8.5 2.5 51 37 48 63 -6 22.5"></polygon>
                    </g>
                    <g id="finger2" transform="translate(134.044270, 178.530423) rotate(30.000000) translate(-134.044270, -178.530423) translate(46.544270, 98.530423)">
                        <rect id="finger-base" fill="#D27E1B" x="6.82121026e-13" y="112" width="96" height="32"></rect>
                        <g id="finger-tip" transform="translate(121.604738, 68.451435) rotate(30.000000) translate(-121.604738, -68.451435) translate(97.104738, 4.451435)">
                            <g id="Path-6" transform="translate(15.981191, 0.000000)">
                                <mask id="mask-6" fill="white">
                                    <use xlink:href="#path-5"></use>
                                </mask>
                                <use id="Mask" fill="#EC9B3B" xlink:href="#path-5"></use>
                                <polygon fill="#D27E1B" mask="url(#mask-6)" points="71.0764336 78.6203385 41.8025589 72.1879702 7.8186356e-14 100.592126 20.5788383 130.948533"></polygon>
                            </g>
                            <rect id="Rectangle-Copy-9" fill="#3C4245" x="0" y="0" width="16" height="32"></rect>
                            <rect id="Rectangle-Copy-10" fill="#3C4245" x="0" y="40" width="16" height="32"></rect>
                        </g>
                        <g id="finger-joint" transform="translate(64.000000, 96.000000)">
                            <g id="Path-3">
                                <mask id="mask-8" fill="white">
                                    <use xlink:href="#path-7"></use>
                                </mask>
                                <use id="Mask" fill="#EC9B3B" xlink:href="#path-7"></use>
                                <polygon fill="#D27E1B" mask="url(#mask-8)" points="79.8090466 13.8086561 89.6487926 50.851596 32.3295732 47.5717958 32.0029669 16.0060972"></polygon>
                            </g>
                            <circle id="Oval-Copy-3" fill="#F7BE16" cx="32" cy="32" r="16"></circle>
                        </g>
                    </g>
                    <g id="finger-1" transform="translate(80.864516, 87.864516) rotate(90.000000) translate(-80.864516, -87.864516) translate(-6.635484, 7.364516)">
                        <g id="finger-tip" transform="translate(53.392048, 68.439440) rotate(-30.000000) translate(-53.392048, -68.439440) translate(28.892048, 4.439440)">
                            <g id="Path-4" transform="translate(0.321622, -0.000000)">
                                <mask id="mask-10" fill="white">
                                    <use xlink:href="#path-9"></use>
                                </mask>
                                <use id="Mask" fill="#EC9B3B" xlink:href="#path-9"></use>
                                <polygon fill="#D27E1B" mask="url(#mask-10)" points="48.9282032 24.6189168 89.7115242 57.9801328 20.591978 134.698699 -9 108.953508"></polygon>
                            </g>
                            <rect id="Rectangle" fill="#3C4245" x="33" y="-2.16004992e-12" width="16" height="32"></rect>
                            <rect id="Rectangle-Copy-8" fill="#3C4245" x="33" y="40" width="16" height="32"></rect>
                        </g>
                        <g id="Path-5" transform="translate(79.000000, 111.459509)">
                            <mask id="mask-12" fill="white">
                                <use xlink:href="#path-11"></use>
                            </mask>
                            <use id="Mask" fill="#EC9B3B" xlink:href="#path-11"></use>
                            <polygon fill="#D27E1B" mask="url(#mask-12)" points="4.63548407 -47 48.1354841 -24 28.1354841 31.5 0.135484067 19.5"></polygon>
                        </g>
                        <g id="finger-joint" transform="translate(47.000000, 95.000000)">
                            <g id="Path-2" transform="translate(-0.000000, 0.459509)">
                                <mask id="mask-14" fill="white">
                                    <use xlink:href="#path-13"></use>
                                </mask>
                                <use id="Mask" fill="#EC9B3B" xlink:href="#path-13"></use>
                                <polygon fill="#D27E1B" mask="url(#mask-14)" points="23.6354841 -31 61.6354841 -18 48.1354841 35.5 16.1354841 29.5"></polygon>
                            </g>
                            <circle id="Oval-Copy-3" fill="#F7BE16" cx="32" cy="33" r="16"></circle>
                        </g>
                    </g>
                    <g id="palm-joint" transform="translate(2.000000, 144.000000)">
                        <g id="Path-7">
                            <mask id="mask-16" fill="white">
                                <use xlink:href="#path-15"></use>
                            </mask>
                            <use id="Mask" fill="#293462" xlink:href="#path-15"></use>
                            <polygon fill="#091238" mask="url(#mask-16)" points="37.9050067 18 75.9050067 38 55.9050067 69 20.9050067 43.5"></polygon>
                        </g>
                        <circle id="Oval-Copy-3" fill="#00818A" cx="32" cy="32" r="16"></circle>
                    </g>
                </g>
                <g id="wrist" transform="translate(0.000000, 164.000000)">
                    <g id="Rectangle" transform="translate(-0.000000, 0.000000)">
                        <mask id="mask-18" fill="white">
                            <use xlink:href="#path-17"></use>
                        </mask>
                        <use id="Mask" fill="#293462" xlink:href="#path-17"></use>
                        <polygon fill="#091238" mask="url(#mask-18)" points="16.8592366 26.7754286 46.6127574 37.3100383 28.873665 92.585029 1.57943641 63.3100383"></polygon>
                    </g>
                    <circle id="Oval-Copy-3" fill="#00818A" cx="32" cy="32" r="16"></circle>
                </g>
            </g>
            <g transform="translate(16.857097, 221.619293)">
                <mask id="mask-20" fill="white">
                    <use xlink:href="#path-19"></use>
                </mask>
                <use id="Mask" fill="#293462" xlink:href="#path-19"></use>
                <polygon id="Rectangle" fill="#091238" mask="url(#mask-20)" points="-35.3714792 10.1075225 -12.5048095 -1 24.3813972 30.1112159 -56 59.3358799"></polygon>
            </g>
            <g id="elbow" transform="translate(0.000000, 190.000000)">
                <g id="Rectangle" transform="translate(0.407424, 0.000000)">
                    <mask id="mask-22" fill="white">
                        <use xlink:href="#path-21"></use>
                    </mask>
                    <use id="Mask" fill="#293462" xlink:href="#path-21"></use>
                    <polygon fill="#091238" mask="url(#mask-22)" points="-37 33.5378777 28.5022321 17.0846837 36.054791 48.003268 -30.5144284 67.3045382"></polygon>
                </g>
                <circle id="Oval-Copy-3" fill="#00818A" cx="33" cy="32" r="16"></circle>
            </g>
        </g>
        <g id="rail" transform="translate(192.000000, 576.000000)">
            <g id="Shape">
                <mask id="mask-25" fill="white">
                    <use xlink:href="#path-23"></use>
                </mask>
                <g id="Mask" stroke="#3C4245" mask="url(#mask-24)" stroke-width="32" fill="#5F6769" stroke-dasharray="48,12">
                    <use mask="url(#mask-26)" xlink:href="#path-23"></use>
                </g>
                <path d="M384,96 L401.5,334.5 L228.5,327.5 L255,96 L384,96 Z M37.5,74.5 L156,119 L110,301.5 L-64,301.5 L37.5,74.5 Z M604,73.5 L672.5,241.5 L521,292.5 L482,111 L604,73.5 Z" fill="#394649" mask="url(#mask-25)"></path>
            </g>
            <circle id="Oval" fill="#719192" cx="320" cy="96" r="64"></circle>
            <circle id="Oval-Copy-2" fill="#719192" cx="96" cy="96" r="64"></circle>
            <circle id="Oval-Copy" fill="#719192" cx="544" cy="96" r="64"></circle>
        </g>
    </g>
</svg>